<?xml version="1.0" encoding="UTF-8" standalone="no"?>
<!DOCTYPE svg PUBLIC "-//W3C//DTD SVG 1.1//EN" "http://www.w3.org/Graphics/SVG/1.1/DTD/svg11.dtd">
<svg xmlns="http://www.w3.org/2000/svg" version="1.1" viewBox="0.00 0.00 1024.00 1024.00">
<path fill="#01516e" d="
  M 477.15 253.66
  C 483.88 201.62 559.34 208.43 559.47 259.33
  C 559.53 285.07 539.09 303.18 513.48 299.82
  C 490.44 296.79 474.12 277.11 477.15 253.66
  Z"
/>
<circle fill="#01516e" cx="699.84" cy="315.72" r="37.34"/>
<ellipse fill="#01516e" cx="0.00" cy="0.00" transform="translate(349.79,315.96) rotate(99.1)" rx="37.09" ry="36.68"/>
<path fill="#01516e" d="
  M 702.52 501.69
  Q 703.25 500.34 703.73 498.49
  Q 709.48 476.31 724.54 456.29
  C 735.97 441.09 750.45 426.57 770.88 432.34
  A 0.24 0.24 0.0 0 1 771.01 432.70
  C 761.42 446.72 752.59 459.12 749.22 477.00
  Q 745.67 495.80 749.09 519.19
  Q 752.04 539.36 760.56 581.20
  C 764.13 598.75 765.18 616.18 765.81 633.93
  A 1.04 1.04 0.0 0 1 764.77 635.01
  L 726.75 634.99
  Q 726.18 634.99 726.09 634.44
  C 720.32 600.72 709.41 570.25 688.14 543.14
  C 631.00 470.34 528.86 443.26 444.56 481.53
  C 382.20 509.84 337.95 566.09 327.73 634.18
  A 0.76 0.76 0.0 0 1 326.98 634.82
  L 287.03 634.76
  Q 286.27 634.76 286.25 633.99
  C 285.63 603.03 292.43 572.70 297.48 542.25
  Q 301.70 516.74 298.99 493.53
  C 297.45 480.43 294.88 467.50 288.68 456.82
  Q 282.12 445.55 275.20 434.45
  A 0.77 0.77 0.0 0 1 275.52 433.35
  C 289.76 426.40 301.49 436.72 311.37 445.90
  Q 329.71 462.94 340.90 485.40
  C 344.06 491.74 346.09 495.50 347.19 501.15
  A 0.39 0.39 0.0 0 0 347.96 501.14
  Q 348.93 495.62 350.20 490.30
  Q 358.27 456.34 359.68 427.69
  Q 360.61 408.81 358.11 382.57
  C 357.84 379.72 358.02 376.99 358.31 374.26
  A 0.97 0.96 86.7 0 1 359.06 373.41
  C 374.18 370.11 389.48 369.20 404.59 373.15
  Q 423.36 378.06 438.05 385.73
  C 447.66 390.75 457.32 396.70 467.64 399.74
  A 1.07 1.06 25.0 0 0 468.81 399.32
  C 475.72 389.01 482.84 378.94 489.21 368.20
  Q 504.87 341.80 521.48 315.92
  A 0.84 0.83 -50.2 0 1 522.79 315.80
  C 527.73 321.12 532.35 328.24 536.40 334.41
  C 550.86 356.43 564.59 378.30 580.68 399.25
  Q 581.71 400.60 583.22 399.83
  Q 590.26 396.24 597.60 391.13
  C 609.07 383.13 627.40 375.15 642.63 372.06
  C 657.01 369.14 673.20 370.43 687.56 373.47
  Q 689.29 373.84 689.07 375.59
  Q 683.71 419.38 693.34 461.48
  Q 696.58 475.63 700.54 489.61
  Q 702.12 495.19 701.72 501.46
  A 0.43 0.43 0.0 0 0 702.52 501.69
  Z
  M 565.97 430.21
  C 555.08 423.41 545.25 410.42 538.23 399.82
  Q 531.25 389.30 524.07 378.86
  Q 523.76 378.41 523.53 378.90
  C 514.26 398.39 496.47 426.94 472.17 430.24
  A 0.59 0.59 0.0 0 0 472.03 431.37
  Q 506.05 445.40 542.80 439.58
  Q 555.50 437.56 568.06 434.77
  Q 579.34 432.26 591.99 436.26
  Q 614.48 443.37 631.00 450.38
  C 637.40 453.09 645.45 457.35 652.75 460.48
  Q 654.58 461.27 654.49 459.28
  Q 653.88 446.00 653.32 433.24
  Q 652.51 414.50 660.77 397.63
  A 0.62 0.62 0.0 0 0 660.46 396.78
  Q 660.04 396.61 659.44 396.85
  C 632.61 407.79 610.04 422.96 580.58 430.33
  C 576.17 431.43 570.09 432.78 565.97 430.21
  Z
  M 395.71 460.42
  Q 395.70 460.80 396.04 460.62
  C 419.05 448.35 441.29 436.50 467.66 433.25
  Q 468.27 433.18 468.79 432.80
  A 0.45 0.45 0.0 0 0 468.65 432.00
  C 452.71 427.51 439.13 421.92 423.35 413.97
  Q 404.99 404.72 386.04 396.63
  Q 385.39 396.35 385.58 397.03
  C 388.24 406.66 391.71 416.97 393.20 425.97
  Q 395.90 442.33 395.71 460.42
  Z"
/>
<ellipse fill="#01516e" cx="0.00" cy="0.00" transform="translate(783.17,385.96) rotate(61.5)" rx="30.71" ry="29.83"/>
<path fill="#01516e" d="
  M 287.86 391.36
  C 287.07 404.67 274.79 413.46 262.48 416.26
  C 244.30 420.39 226.78 405.68 226.60 387.24
  C 226.41 368.00 243.25 351.35 262.99 356.20
  C 268.83 357.63 279.26 363.12 282.76 369.16
  C 287.27 376.95 288.39 382.30 287.86 391.36
  Z"
/>
<path fill="#01516e" d="
  M 395.59 705.47
  A 0.40 0.39 7.8 0 0 394.99 705.92
  Q 397.96 714.19 401.39 721.75
  C 410.39 741.58 427.99 759.38 445.42 771.97
  C 488.25 802.92 547.82 802.36 593.57 778.91
  C 620.02 765.36 644.43 741.16 656.63 713.84
  A 0.67 0.52 18.4 0 0 656.13 713.08
  C 655.60 712.94 647.28 726.26 646.33 727.73
  A 0.35 0.35 0.0 0 1 645.70 727.44
  C 649.62 714.51 655.85 702.71 656.79 688.95
  C 659.27 652.77 650.06 612.86 625.93 585.07
  C 610.53 567.34 591.45 552.71 567.72 544.08
  Q 564.70 542.98 554.57 539.91
  Q 554.12 539.77 554.12 539.30
  L 554.31 508.50
  Q 554.31 507.68 555.10 507.89
  C 556.91 508.36 558.75 509.17 560.63 509.61
  C 602.75 519.53 641.74 545.95 664.93 582.85
  Q 681.93 609.90 686.52 643.00
  C 688.34 656.16 690.35 670.98 687.99 682.66
  Q 687.84 683.42 688.49 683.43
  L 721.43 684.14
  A 1.09 1.09 0.0 0 1 722.46 685.52
  C 719.95 694.80 717.69 704.95 714.78 713.35
  C 703.61 745.56 683.56 775.00 657.82 797.69
  Q 605.91 843.45 535.19 847.57
  C 433.35 853.50 353.68 780.59 330.23 685.57
  Q 330.00 684.61 330.98 684.55
  Q 349.74 683.41 368.51 684.03
  A 0.33 0.33 0.0 0 0 368.85 683.63
  C 363.44 657.75 370.19 627.14 379.68 602.43
  C 398.29 553.93 446.22 516.41 496.98 507.60
  Q 498.67 507.30 498.63 509.02
  L 498.07 539.21
  Q 498.06 539.69 497.60 539.80
  Q 481.38 543.55 463.73 553.74
  Q 427.03 574.91 409.74 611.14
  C 394.29 643.52 390.87 689.65 406.91 722.56
  Q 407.09 722.92 406.94 723.18
  Q 406.70 723.59 406.46 723.18
  Q 401.45 714.74 396.35 706.37
  Q 395.96 705.74 395.59 705.47
  Z"
/>
<path fill="#01516e" d="
  M 524.67 631.97
  C 491.70 647.89 467.71 678.21 457.46 713.05
  C 451.15 734.48 451.79 756.77 458.80 778.04
  A 0.27 0.27 0.0 0 1 458.31 778.27
  C 446.49 759.77 440.82 740.64 438.93 718.85
  Q 437.99 708.04 438.41 700.61
  C 441.06 652.97 474.90 615.44 517.56 597.57
  C 525.46 594.26 529.64 596.22 536.81 599.69
  C 559.00 610.44 576.32 624.08 591.27 643.22
  C 610.61 667.98 616.34 703.67 609.48 733.51
  Q 606.93 744.64 602.11 758.75
  C 599.57 766.17 596.16 772.09 591.81 778.25
  A 0.27 0.26 70.9 0 1 591.34 778.02
  C 597.97 755.43 596.57 733.05 591.03 710.24
  C 582.70 675.93 556.74 647.68 525.57 631.97
  Q 525.12 631.75 524.67 631.97
  Z"
/>
</svg>
